<mxfile host="app.diagrams.net" modified="2023-07-27T22:19:14.409Z" agent="Mozilla/5.0 (X11; Linux x86_64) AppleWebKit/537.36 (KHTML, like Gecko) Chrome/114.0.0.0 Safari/537.36" etag="gWoAdqn2Wf4FzHug87NM" version="21.6.5" type="google" pages="2">
  <diagram name="Copia de Página-1" id="Eb_1iLqbJWPre46TkYi8">
    <mxGraphModel grid="0" page="1" gridSize="10" guides="1" tooltips="1" connect="1" arrows="1" fold="1" pageScale="1" pageWidth="827" pageHeight="1169" math="0" shadow="0">
      <root>
        <mxCell id="flmI9w5uJAhE-OJWaNQS-0" />
        <mxCell id="flmI9w5uJAhE-OJWaNQS-1" parent="flmI9w5uJAhE-OJWaNQS-0" />
        <mxCell id="n52NxJYJDgnvrL88Earb-2" style="edgeStyle=orthogonalEdgeStyle;rounded=0;orthogonalLoop=1;jettySize=auto;html=1;exitX=0.5;exitY=1;exitDx=0;exitDy=0;" edge="1" parent="flmI9w5uJAhE-OJWaNQS-1" source="flmI9w5uJAhE-OJWaNQS-2" target="n52NxJYJDgnvrL88Earb-1">
          <mxGeometry relative="1" as="geometry" />
        </mxCell>
        <mxCell id="flmI9w5uJAhE-OJWaNQS-2" value="&lt;b style=&quot;&quot;&gt;&lt;font style=&quot;font-size: 14px;&quot;&gt;INICIO&lt;/font&gt;&lt;/b&gt;" style="ellipse;whiteSpace=wrap;html=1;aspect=fixed;fillColor=#fff2cc;strokeColor=#d6b656;" vertex="1" parent="flmI9w5uJAhE-OJWaNQS-1">
          <mxGeometry x="370" y="26" width="80" height="80" as="geometry" />
        </mxCell>
        <mxCell id="flmI9w5uJAhE-OJWaNQS-4" value="" style="edgeStyle=orthogonalEdgeStyle;rounded=0;orthogonalLoop=1;jettySize=auto;html=1;entryX=0.5;entryY=0;entryDx=0;entryDy=0;" edge="1" parent="flmI9w5uJAhE-OJWaNQS-1" source="flmI9w5uJAhE-OJWaNQS-7" target="flmI9w5uJAhE-OJWaNQS-30">
          <mxGeometry relative="1" as="geometry">
            <mxPoint x="410" y="309" as="targetPoint" />
          </mxGeometry>
        </mxCell>
        <mxCell id="flmI9w5uJAhE-OJWaNQS-5" value="SI" style="edgeLabel;html=1;align=center;verticalAlign=middle;resizable=0;points=[];" vertex="1" connectable="0" parent="flmI9w5uJAhE-OJWaNQS-4">
          <mxGeometry x="-0.1" y="3" relative="1" as="geometry">
            <mxPoint x="10" y="-17" as="offset" />
          </mxGeometry>
        </mxCell>
        <mxCell id="flmI9w5uJAhE-OJWaNQS-6" value="" style="edgeStyle=orthogonalEdgeStyle;rounded=0;orthogonalLoop=1;jettySize=auto;html=1;" edge="1" parent="flmI9w5uJAhE-OJWaNQS-1" source="flmI9w5uJAhE-OJWaNQS-7" target="flmI9w5uJAhE-OJWaNQS-21">
          <mxGeometry relative="1" as="geometry" />
        </mxCell>
        <mxCell id="flmI9w5uJAhE-OJWaNQS-7" value="el archivo existe?" style="rhombus;whiteSpace=wrap;html=1;fillColor=#ffff88;strokeColor=#36393d;" vertex="1" parent="flmI9w5uJAhE-OJWaNQS-1">
          <mxGeometry x="370" y="387" width="79" height="81" as="geometry" />
        </mxCell>
        <mxCell id="flmI9w5uJAhE-OJWaNQS-20" value="" style="edgeStyle=orthogonalEdgeStyle;rounded=0;orthogonalLoop=1;jettySize=auto;html=1;" edge="1" parent="flmI9w5uJAhE-OJWaNQS-1" source="flmI9w5uJAhE-OJWaNQS-21" target="flmI9w5uJAhE-OJWaNQS-23">
          <mxGeometry relative="1" as="geometry" />
        </mxCell>
        <mxCell id="flmI9w5uJAhE-OJWaNQS-21" value="Imprime &quot;el archivo no existe&quot;" style="whiteSpace=wrap;html=1;fillColor=#d5e8d4;strokeColor=#82b366;" vertex="1" parent="flmI9w5uJAhE-OJWaNQS-1">
          <mxGeometry x="81" y="397" width="120" height="60" as="geometry" />
        </mxCell>
        <mxCell id="flmI9w5uJAhE-OJWaNQS-22" value="NO" style="text;html=1;align=center;verticalAlign=middle;resizable=0;points=[];autosize=1;strokeColor=none;fillColor=none;" vertex="1" parent="flmI9w5uJAhE-OJWaNQS-1">
          <mxGeometry x="278" y="402" width="36" height="26" as="geometry" />
        </mxCell>
        <mxCell id="flmI9w5uJAhE-OJWaNQS-23" value="&lt;b&gt;FIN&lt;/b&gt;" style="ellipse;whiteSpace=wrap;html=1;fillColor=#ffe6cc;strokeColor=#d79b00;" vertex="1" parent="flmI9w5uJAhE-OJWaNQS-1">
          <mxGeometry x="101" y="1131" width="80" height="80" as="geometry" />
        </mxCell>
        <mxCell id="flmI9w5uJAhE-OJWaNQS-26" value="" style="edgeStyle=orthogonalEdgeStyle;rounded=0;orthogonalLoop=1;jettySize=auto;html=1;" edge="1" parent="flmI9w5uJAhE-OJWaNQS-1" source="flmI9w5uJAhE-OJWaNQS-30" target="flmI9w5uJAhE-OJWaNQS-32">
          <mxGeometry relative="1" as="geometry" />
        </mxCell>
        <mxCell id="flmI9w5uJAhE-OJWaNQS-27" value="SI" style="edgeLabel;html=1;align=center;verticalAlign=middle;resizable=0;points=[];" vertex="1" connectable="0" parent="flmI9w5uJAhE-OJWaNQS-26">
          <mxGeometry x="-0.2333" y="1" relative="1" as="geometry">
            <mxPoint x="-1" y="-7" as="offset" />
          </mxGeometry>
        </mxCell>
        <mxCell id="flmI9w5uJAhE-OJWaNQS-28" value="" style="edgeStyle=orthogonalEdgeStyle;rounded=0;orthogonalLoop=1;jettySize=auto;html=1;" edge="1" parent="flmI9w5uJAhE-OJWaNQS-1" source="flmI9w5uJAhE-OJWaNQS-30" target="flmI9w5uJAhE-OJWaNQS-33">
          <mxGeometry relative="1" as="geometry" />
        </mxCell>
        <mxCell id="flmI9w5uJAhE-OJWaNQS-29" value="NO" style="edgeLabel;html=1;align=center;verticalAlign=middle;resizable=0;points=[];" vertex="1" connectable="0" parent="flmI9w5uJAhE-OJWaNQS-28">
          <mxGeometry x="-0.0333" y="-2" relative="1" as="geometry">
            <mxPoint x="-1" y="-10" as="offset" />
          </mxGeometry>
        </mxCell>
        <mxCell id="flmI9w5uJAhE-OJWaNQS-30" value="es un archivo.md" style="rhombus;whiteSpace=wrap;html=1;fillColor=#ffff88;strokeColor=#36393d;" vertex="1" parent="flmI9w5uJAhE-OJWaNQS-1">
          <mxGeometry x="370" y="629" width="80" height="80" as="geometry" />
        </mxCell>
        <mxCell id="flmI9w5uJAhE-OJWaNQS-31" value="" style="edgeStyle=orthogonalEdgeStyle;rounded=0;orthogonalLoop=1;jettySize=auto;html=1;" edge="1" parent="flmI9w5uJAhE-OJWaNQS-1" source="flmI9w5uJAhE-OJWaNQS-32" target="flmI9w5uJAhE-OJWaNQS-38">
          <mxGeometry relative="1" as="geometry" />
        </mxCell>
        <mxCell id="flmI9w5uJAhE-OJWaNQS-32" value="Leer el archivo.md" style="whiteSpace=wrap;html=1;fillColor=#e1d5e7;strokeColor=#9673a6;" vertex="1" parent="flmI9w5uJAhE-OJWaNQS-1">
          <mxGeometry x="510" y="639" width="120" height="60" as="geometry" />
        </mxCell>
        <mxCell id="flmI9w5uJAhE-OJWaNQS-33" value="error: no es un archivo.md" style="whiteSpace=wrap;html=1;fillColor=#d5e8d4;strokeColor=#82b366;" vertex="1" parent="flmI9w5uJAhE-OJWaNQS-1">
          <mxGeometry x="199" y="639" width="120" height="61" as="geometry" />
        </mxCell>
        <mxCell id="flmI9w5uJAhE-OJWaNQS-34" value="" style="endArrow=classic;html=1;rounded=0;entryX=1;entryY=0.5;entryDx=0;entryDy=0;" edge="1" parent="flmI9w5uJAhE-OJWaNQS-1" target="flmI9w5uJAhE-OJWaNQS-23">
          <mxGeometry width="50" height="50" relative="1" as="geometry">
            <mxPoint x="259" y="698" as="sourcePoint" />
            <mxPoint x="247" y="1009" as="targetPoint" />
            <Array as="points">
              <mxPoint x="259" y="1171" />
            </Array>
          </mxGeometry>
        </mxCell>
        <mxCell id="flmI9w5uJAhE-OJWaNQS-37" value="" style="edgeStyle=orthogonalEdgeStyle;rounded=0;orthogonalLoop=1;jettySize=auto;html=1;" edge="1" parent="flmI9w5uJAhE-OJWaNQS-1" source="flmI9w5uJAhE-OJWaNQS-38" target="flmI9w5uJAhE-OJWaNQS-40">
          <mxGeometry relative="1" as="geometry" />
        </mxCell>
        <mxCell id="flmI9w5uJAhE-OJWaNQS-38" value="Buscar los links" style="whiteSpace=wrap;html=1;fillColor=#e1d5e7;strokeColor=#9673a6;" vertex="1" parent="flmI9w5uJAhE-OJWaNQS-1">
          <mxGeometry x="510" y="779" width="120" height="60" as="geometry" />
        </mxCell>
        <mxCell id="hny0FEZsj_aSgteA06kb-0" style="edgeStyle=orthogonalEdgeStyle;rounded=0;orthogonalLoop=1;jettySize=auto;html=1;exitX=0.5;exitY=1;exitDx=0;exitDy=0;entryX=0.5;entryY=0;entryDx=0;entryDy=0;" edge="1" parent="flmI9w5uJAhE-OJWaNQS-1" source="flmI9w5uJAhE-OJWaNQS-40" target="63wKCJJX6FvhJQ1U0PKb-0">
          <mxGeometry relative="1" as="geometry" />
        </mxCell>
        <mxCell id="flmI9w5uJAhE-OJWaNQS-40" value="Truncar texto de los links a 50 caracteres" style="whiteSpace=wrap;html=1;fillColor=#e1d5e7;strokeColor=#9673a6;" vertex="1" parent="flmI9w5uJAhE-OJWaNQS-1">
          <mxGeometry x="510" y="919" width="120" height="60" as="geometry" />
        </mxCell>
        <mxCell id="hny0FEZsj_aSgteA06kb-12" style="edgeStyle=orthogonalEdgeStyle;rounded=0;orthogonalLoop=1;jettySize=auto;html=1;entryX=0.596;entryY=0.992;entryDx=0;entryDy=0;entryPerimeter=0;" edge="1" parent="flmI9w5uJAhE-OJWaNQS-1" source="flmI9w5uJAhE-OJWaNQS-42" target="flmI9w5uJAhE-OJWaNQS-23">
          <mxGeometry relative="1" as="geometry" />
        </mxCell>
        <mxCell id="flmI9w5uJAhE-OJWaNQS-42" value="Retornar arreglo de objetos links" style="whiteSpace=wrap;html=1;fillColor=#e1d5e7;strokeColor=#9673a6;" vertex="1" parent="flmI9w5uJAhE-OJWaNQS-1">
          <mxGeometry x="89" y="1327" width="120" height="60" as="geometry" />
        </mxCell>
        <mxCell id="n52NxJYJDgnvrL88Earb-3" style="edgeStyle=orthogonalEdgeStyle;rounded=0;orthogonalLoop=1;jettySize=auto;html=1;exitX=0.5;exitY=1;exitDx=0;exitDy=0;" edge="1" parent="flmI9w5uJAhE-OJWaNQS-1" source="n52NxJYJDgnvrL88Earb-1">
          <mxGeometry relative="1" as="geometry">
            <mxPoint x="410" y="252" as="targetPoint" />
          </mxGeometry>
        </mxCell>
        <mxCell id="n52NxJYJDgnvrL88Earb-1" value="obtener path por parámetro" style="whiteSpace=wrap;html=1;fillColor=#f8cecc;strokeColor=#b85450;" vertex="1" parent="flmI9w5uJAhE-OJWaNQS-1">
          <mxGeometry x="350" y="148" width="120" height="60" as="geometry" />
        </mxCell>
        <mxCell id="iaJCq1oTjdlVzCQCZ5go-2" style="edgeStyle=orthogonalEdgeStyle;rounded=0;orthogonalLoop=1;jettySize=auto;html=1;exitX=1;exitY=0.5;exitDx=0;exitDy=0;entryX=0;entryY=0.5;entryDx=0;entryDy=0;" edge="1" parent="flmI9w5uJAhE-OJWaNQS-1" source="ioRW1G0ksGucZCcj0Kav-2" target="iaJCq1oTjdlVzCQCZ5go-1">
          <mxGeometry relative="1" as="geometry" />
        </mxCell>
        <mxCell id="iaJCq1oTjdlVzCQCZ5go-5" value="NO" style="edgeLabel;html=1;align=center;verticalAlign=middle;resizable=0;points=[];" connectable="0" vertex="1" parent="iaJCq1oTjdlVzCQCZ5go-2">
          <mxGeometry x="-0.2848" y="-1" relative="1" as="geometry">
            <mxPoint y="-12" as="offset" />
          </mxGeometry>
        </mxCell>
        <mxCell id="iaJCq1oTjdlVzCQCZ5go-3" style="edgeStyle=orthogonalEdgeStyle;rounded=0;orthogonalLoop=1;jettySize=auto;html=1;exitX=0.5;exitY=1;exitDx=0;exitDy=0;" edge="1" parent="flmI9w5uJAhE-OJWaNQS-1" source="ioRW1G0ksGucZCcj0Kav-2">
          <mxGeometry relative="1" as="geometry">
            <mxPoint x="409.79999999999995" y="382.5999999999999" as="targetPoint" />
          </mxGeometry>
        </mxCell>
        <mxCell id="iaJCq1oTjdlVzCQCZ5go-4" value="SI" style="edgeLabel;html=1;align=center;verticalAlign=middle;resizable=0;points=[];" connectable="0" vertex="1" parent="iaJCq1oTjdlVzCQCZ5go-3">
          <mxGeometry x="-0.1974" y="2" relative="1" as="geometry">
            <mxPoint x="7" y="-8" as="offset" />
          </mxGeometry>
        </mxCell>
        <mxCell id="ioRW1G0ksGucZCcj0Kav-2" value="es una ruta absoluta?" style="rhombus;whiteSpace=wrap;html=1;fillColor=#ffff88;strokeColor=#36393d;" vertex="1" parent="flmI9w5uJAhE-OJWaNQS-1">
          <mxGeometry x="370" y="253" width="80" height="80" as="geometry" />
        </mxCell>
        <mxCell id="Nl9SdydDJLbkenpEZ9Hk-1" style="edgeStyle=orthogonalEdgeStyle;rounded=0;orthogonalLoop=1;jettySize=auto;html=1;exitX=0.5;exitY=1;exitDx=0;exitDy=0;entryX=1;entryY=0.5;entryDx=0;entryDy=0;" edge="1" parent="flmI9w5uJAhE-OJWaNQS-1" source="iaJCq1oTjdlVzCQCZ5go-1" target="flmI9w5uJAhE-OJWaNQS-7">
          <mxGeometry relative="1" as="geometry">
            <mxPoint x="410" y="380.3333333333335" as="targetPoint" />
          </mxGeometry>
        </mxCell>
        <mxCell id="iaJCq1oTjdlVzCQCZ5go-1" value="convertir a una ruta absoluta" style="whiteSpace=wrap;html=1;fillColor=#e1d5e7;strokeColor=#9673a6;" vertex="1" parent="flmI9w5uJAhE-OJWaNQS-1">
          <mxGeometry x="500" y="263" width="120" height="60" as="geometry" />
        </mxCell>
        <mxCell id="hny0FEZsj_aSgteA06kb-2" style="edgeStyle=orthogonalEdgeStyle;rounded=0;orthogonalLoop=1;jettySize=auto;html=1;exitX=1;exitY=0.5;exitDx=0;exitDy=0;entryX=0.006;entryY=0.578;entryDx=0;entryDy=0;entryPerimeter=0;" edge="1" parent="flmI9w5uJAhE-OJWaNQS-1" source="63wKCJJX6FvhJQ1U0PKb-0" target="hny0FEZsj_aSgteA06kb-1">
          <mxGeometry relative="1" as="geometry">
            <mxPoint x="665.8" y="1204.1999999999998" as="targetPoint" />
          </mxGeometry>
        </mxCell>
        <mxCell id="hny0FEZsj_aSgteA06kb-5" style="edgeStyle=orthogonalEdgeStyle;rounded=0;orthogonalLoop=1;jettySize=auto;html=1;exitX=0.5;exitY=1;exitDx=0;exitDy=0;entryX=0.5;entryY=0;entryDx=0;entryDy=0;" edge="1" parent="flmI9w5uJAhE-OJWaNQS-1" source="63wKCJJX6FvhJQ1U0PKb-0" target="hny0FEZsj_aSgteA06kb-4">
          <mxGeometry relative="1" as="geometry" />
        </mxCell>
        <mxCell id="63wKCJJX6FvhJQ1U0PKb-0" value="validate?" style="rhombus;whiteSpace=wrap;html=1;fillColor=#ffff88;strokeColor=#36393d;" vertex="1" parent="flmI9w5uJAhE-OJWaNQS-1">
          <mxGeometry x="530" y="1161" width="80" height="86" as="geometry" />
        </mxCell>
        <mxCell id="63wKCJJX6FvhJQ1U0PKb-8" value="SI" style="text;html=1;align=center;verticalAlign=middle;resizable=0;points=[];autosize=1;strokeColor=none;fillColor=none;" vertex="1" parent="flmI9w5uJAhE-OJWaNQS-1">
          <mxGeometry x="623" y="1177" width="29" height="26" as="geometry" />
        </mxCell>
        <mxCell id="hny0FEZsj_aSgteA06kb-9" style="edgeStyle=orthogonalEdgeStyle;rounded=0;orthogonalLoop=1;jettySize=auto;html=1;exitX=0.5;exitY=1;exitDx=0;exitDy=0;entryX=1;entryY=0.5;entryDx=0;entryDy=0;" edge="1" parent="flmI9w5uJAhE-OJWaNQS-1" source="hny0FEZsj_aSgteA06kb-1" target="hny0FEZsj_aSgteA06kb-4">
          <mxGeometry relative="1" as="geometry" />
        </mxCell>
        <mxCell id="hny0FEZsj_aSgteA06kb-1" value="validar links" style="whiteSpace=wrap;html=1;fillColor=#e1d5e7;strokeColor=#9673a6;" vertex="1" parent="flmI9w5uJAhE-OJWaNQS-1">
          <mxGeometry x="692" y="1169" width="120" height="60" as="geometry" />
        </mxCell>
        <mxCell id="hny0FEZsj_aSgteA06kb-10" style="edgeStyle=orthogonalEdgeStyle;rounded=0;orthogonalLoop=1;jettySize=auto;html=1;exitX=0;exitY=0.5;exitDx=0;exitDy=0;entryX=1;entryY=0.5;entryDx=0;entryDy=0;" edge="1" parent="flmI9w5uJAhE-OJWaNQS-1" source="hny0FEZsj_aSgteA06kb-4" target="flmI9w5uJAhE-OJWaNQS-42">
          <mxGeometry relative="1" as="geometry" />
        </mxCell>
        <mxCell id="hny0FEZsj_aSgteA06kb-14" value="" style="edgeStyle=orthogonalEdgeStyle;rounded=0;orthogonalLoop=1;jettySize=auto;html=1;" edge="1" parent="flmI9w5uJAhE-OJWaNQS-1" source="hny0FEZsj_aSgteA06kb-4" target="hny0FEZsj_aSgteA06kb-13">
          <mxGeometry relative="1" as="geometry" />
        </mxCell>
        <mxCell id="hny0FEZsj_aSgteA06kb-4" value="stats?" style="rhombus;whiteSpace=wrap;html=1;fillColor=#ffff88;strokeColor=#36393d;" vertex="1" parent="flmI9w5uJAhE-OJWaNQS-1">
          <mxGeometry x="530" y="1317" width="80" height="80" as="geometry" />
        </mxCell>
        <mxCell id="hny0FEZsj_aSgteA06kb-6" value="NO" style="text;html=1;align=center;verticalAlign=middle;resizable=0;points=[];autosize=1;strokeColor=none;fillColor=none;" vertex="1" parent="flmI9w5uJAhE-OJWaNQS-1">
          <mxGeometry x="567" y="1266" width="36" height="26" as="geometry" />
        </mxCell>
        <mxCell id="hny0FEZsj_aSgteA06kb-11" value="NO" style="text;html=1;align=center;verticalAlign=middle;resizable=0;points=[];autosize=1;strokeColor=none;fillColor=none;" vertex="1" parent="flmI9w5uJAhE-OJWaNQS-1">
          <mxGeometry x="353" y="1333" width="36" height="26" as="geometry" />
        </mxCell>
        <mxCell id="hny0FEZsj_aSgteA06kb-17" style="edgeStyle=orthogonalEdgeStyle;rounded=0;orthogonalLoop=1;jettySize=auto;html=1;exitX=0.5;exitY=1;exitDx=0;exitDy=0;entryX=0.5;entryY=0;entryDx=0;entryDy=0;" edge="1" parent="flmI9w5uJAhE-OJWaNQS-1" source="hny0FEZsj_aSgteA06kb-13" target="hny0FEZsj_aSgteA06kb-16">
          <mxGeometry relative="1" as="geometry" />
        </mxCell>
        <mxCell id="hny0FEZsj_aSgteA06kb-22" style="edgeStyle=orthogonalEdgeStyle;rounded=0;orthogonalLoop=1;jettySize=auto;html=1;exitX=0;exitY=0.5;exitDx=0;exitDy=0;entryX=0.964;entryY=0.53;entryDx=0;entryDy=0;entryPerimeter=0;" edge="1" parent="flmI9w5uJAhE-OJWaNQS-1" source="hny0FEZsj_aSgteA06kb-13" target="hny0FEZsj_aSgteA06kb-21">
          <mxGeometry relative="1" as="geometry" />
        </mxCell>
        <mxCell id="hny0FEZsj_aSgteA06kb-13" value="validate?" style="rhombus;whiteSpace=wrap;html=1;fillColor=#ffff88;strokeColor=#36393d;" vertex="1" parent="flmI9w5uJAhE-OJWaNQS-1">
          <mxGeometry x="530" y="1477" width="80" height="80" as="geometry" />
        </mxCell>
        <mxCell id="hny0FEZsj_aSgteA06kb-15" value="SI" style="text;html=1;align=center;verticalAlign=middle;resizable=0;points=[];autosize=1;strokeColor=none;fillColor=none;" vertex="1" parent="flmI9w5uJAhE-OJWaNQS-1">
          <mxGeometry x="570.5" y="1417" width="29" height="26" as="geometry" />
        </mxCell>
        <mxCell id="hny0FEZsj_aSgteA06kb-19" style="edgeStyle=orthogonalEdgeStyle;rounded=0;orthogonalLoop=1;jettySize=auto;html=1;exitX=0;exitY=0.5;exitDx=0;exitDy=0;entryX=0.469;entryY=0.989;entryDx=0;entryDy=0;entryPerimeter=0;" edge="1" parent="flmI9w5uJAhE-OJWaNQS-1" source="hny0FEZsj_aSgteA06kb-16" target="flmI9w5uJAhE-OJWaNQS-42">
          <mxGeometry relative="1" as="geometry" />
        </mxCell>
        <mxCell id="hny0FEZsj_aSgteA06kb-16" value="&lt;font style=&quot;font-size: 11px;&quot;&gt;&amp;nbsp;total de links&lt;br&gt;&amp;nbsp;unique y broken&lt;/font&gt;" style="shape=parallelogram;perimeter=parallelogramPerimeter;whiteSpace=wrap;html=1;fixedSize=1;fillColor=#b1ddf0;strokeColor=#10739e;" vertex="1" parent="flmI9w5uJAhE-OJWaNQS-1">
          <mxGeometry x="494.5" y="1637" width="151" height="63" as="geometry" />
        </mxCell>
        <mxCell id="hny0FEZsj_aSgteA06kb-20" value="SI" style="text;html=1;align=center;verticalAlign=middle;resizable=0;points=[];autosize=1;strokeColor=none;fillColor=none;" vertex="1" parent="flmI9w5uJAhE-OJWaNQS-1">
          <mxGeometry x="573" y="1569" width="29" height="26" as="geometry" />
        </mxCell>
        <mxCell id="hny0FEZsj_aSgteA06kb-24" style="edgeStyle=orthogonalEdgeStyle;rounded=0;orthogonalLoop=1;jettySize=auto;html=1;exitX=0;exitY=0.5;exitDx=0;exitDy=0;entryX=0.75;entryY=1;entryDx=0;entryDy=0;" edge="1" parent="flmI9w5uJAhE-OJWaNQS-1" source="hny0FEZsj_aSgteA06kb-21" target="flmI9w5uJAhE-OJWaNQS-42">
          <mxGeometry relative="1" as="geometry" />
        </mxCell>
        <mxCell id="hny0FEZsj_aSgteA06kb-21" value="total de links" style="shape=parallelogram;perimeter=parallelogramPerimeter;whiteSpace=wrap;html=1;fixedSize=1;fillColor=#b1ddf0;strokeColor=#10739e;" vertex="1" parent="flmI9w5uJAhE-OJWaNQS-1">
          <mxGeometry x="296" y="1488" width="148" height="56" as="geometry" />
        </mxCell>
        <mxCell id="hny0FEZsj_aSgteA06kb-23" value="NO" style="text;html=1;align=center;verticalAlign=middle;resizable=0;points=[];autosize=1;strokeColor=none;fillColor=none;" vertex="1" parent="flmI9w5uJAhE-OJWaNQS-1">
          <mxGeometry x="462" y="1488" width="36" height="26" as="geometry" />
        </mxCell>
      </root>
    </mxGraphModel>
  </diagram>
  <diagram id="k8mlhRg00v6p-Pna7aoA" name="Página-2">
    <mxGraphModel grid="0" page="1" gridSize="10" guides="1" tooltips="1" connect="1" arrows="1" fold="1" pageScale="1" pageWidth="827" pageHeight="1169" math="0" shadow="0">
      <root>
        <mxCell id="0" />
        <mxCell id="1" parent="0" />
      </root>
    </mxGraphModel>
  </diagram>
</mxfile>
